<svg xmlns="http://www.w3.org/2000/svg" width="14.698" height="8.652">
    <defs>
        <style>
            .cls-1{fill:#009ee1;stroke-linejoin:round}.cls-2,.cls-3{stroke:none}.cls-3{fill:#009ee1}
        </style>
    </defs>
    <g id="Group_2" data-name="Group 2" transform="translate(-1062.151 -44.697)">
        <g id="Shape_2" data-name="Shape 2" class="cls-1">
            <path class="cls-2" d="m1069.5 53.056-.354-.353-6.349-6.35-.353-.353.353-.354.302-.302.354-.354.354.354 6.349 6.349.353.353-.353.354-.302.302-.354.354z"/>
            <path class="cls-3" d="m1063.453 45.697-.302.303 6.349 6.349.302-.302-6.349-6.35m0-1a1 1 0 0 1 .707.293l6.35 6.35a1 1 0 0 1 0 1.413l-.303.303a1 1 0 0 1-1.414 0l-6.35-6.35a1 1 0 0 1 0-1.413l.303-.303a1 1 0 0 1 .707-.293z"/>
        </g>
        <g id="Shape_2_copy" data-name="Shape 2 copy" class="cls-1">
            <path class="cls-2" d="m1069.5 53.056-.354-.354-.302-.302-.353-.354.353-.353 6.35-6.35.353-.353.354.354.302.302.353.354-.353.353-6.35 6.35-.353.353z"/>
            <path class="cls-3" d="m1075.547 45.697-6.35 6.35.303.302 6.35-6.35-.303-.302m0-1a1 1 0 0 1 .707.293l.303.303a1 1 0 0 1 0 1.414l-6.35 6.35a1 1 0 0 1-1.415 0l-.302-.304a1 1 0 0 1 0-1.414l6.35-6.349a1 1 0 0 1 .707-.293z"/>
        </g>
    </g>
</svg>
